<svg width="33" height="33" viewBox="0 0 33 33" fill="none" xmlns="http://www.w3.org/2000/svg">
<path d="M25.7813 16.5C25.7812 14.4569 25.1069 12.4709 23.8631 10.8501C22.6192 9.22923 20.8753 8.06409 18.9018 7.53537C16.9283 7.00665 14.8355 7.14389 12.948 7.92581C11.0604 8.70772 9.4836 10.0906 8.46209 11.86C7.44059 13.6294 7.03146 15.6865 7.29818 17.7121C7.56489 19.7377 8.49254 21.6187 9.93725 23.0634C11.382 24.508 13.263 25.4356 15.2886 25.7023C17.3142 25.969 19.3713 25.5598 21.1406 24.5383C21.3774 24.4037 21.6577 24.3682 21.9205 24.4395C22.1833 24.5109 22.4073 24.6833 22.5434 24.9191C22.6796 25.1549 22.7169 25.4351 22.6473 25.6983C22.5777 25.9616 22.4068 26.1867 22.1719 26.3244C20.0091 27.5733 17.4946 28.0736 15.0184 27.7478C12.5423 27.4219 10.2428 26.2881 8.47677 24.5222C6.71069 22.7563 5.57667 20.4569 5.25061 17.9808C4.92454 15.5047 5.42465 12.9901 6.67336 10.8272C7.92208 8.6643 9.84961 6.97386 12.157 6.0181C14.4644 5.06234 17.0227 4.89466 19.4351 5.54109C21.8475 6.18751 23.9791 7.6119 25.4995 9.59333C27.0198 11.5748 27.8438 14.0025 27.8438 16.5C27.8438 16.7735 27.7351 17.0358 27.5417 17.2292C27.3483 17.4226 27.086 17.5313 26.8125 17.5313C26.539 17.5313 26.2767 17.4226 26.0833 17.2292C25.8899 17.0358 25.7813 16.7735 25.7813 16.5Z" fill="#7E7E7E"/>
<path d="M21.6562 17.875C21.6562 18.422 21.8735 18.9466 22.2603 19.3334C22.6471 19.7202 23.1717 19.9375 23.7188 19.9375C24.2658 19.9375 24.7904 19.7202 25.1772 19.3334C25.564 18.9466 25.7812 18.422 25.7812 17.875H27.8438C27.8438 18.969 27.4092 20.0182 26.6356 20.7918C25.862 21.5654 24.8128 22 23.7188 22C22.6247 22 21.5755 21.5654 20.8019 20.7918C20.0283 20.0182 19.5938 18.969 19.5938 17.875H21.6562Z" fill="#7E7E7E"/>
<path d="M19.5938 16.5C19.5938 15.6795 19.2678 14.8926 18.6876 14.3124C18.1074 13.7322 17.3205 13.4062 16.5 13.4062C15.6795 13.4062 14.8926 13.7322 14.3124 14.3124C13.7322 14.8926 13.4062 15.6795 13.4062 16.5C13.4062 17.3205 13.7322 18.1074 14.3124 18.6876C14.8926 19.2678 15.6795 19.5938 16.5 19.5938C17.3205 19.5938 18.1074 19.2678 18.6876 18.6876C19.2678 18.1074 19.5938 17.3205 19.5938 16.5ZM21.6562 16.5C21.6562 17.8675 21.113 19.179 20.146 20.146C19.179 21.113 17.8675 21.6562 16.5 21.6562C15.1325 21.6562 13.821 21.113 12.854 20.146C11.887 19.179 11.3438 17.8675 11.3438 16.5C11.3438 15.1325 11.887 13.821 12.854 12.854C13.821 11.887 15.1325 11.3438 16.5 11.3438C17.8675 11.3438 19.179 11.887 20.146 12.854C21.113 13.821 21.6562 15.1325 21.6562 16.5ZM27.8438 15.4688V17.875H25.7812V15.4688H27.8438Z" fill="#7E7E7E"/>
<path d="M19.5938 19.25V12.375C19.5938 12.1015 19.7024 11.8392 19.8958 11.6458C20.0892 11.4524 20.3515 11.3438 20.625 11.3438C20.8985 11.3438 21.1608 11.4524 21.3542 11.6458C21.5476 11.8392 21.6562 12.1015 21.6562 12.375V19.25C21.6562 19.5235 21.5476 19.7858 21.3542 19.9792C21.1608 20.1726 20.8985 20.2812 20.625 20.2812C20.3515 20.2812 20.0892 20.1726 19.8958 19.9792C19.7024 19.7858 19.5938 19.5235 19.5938 19.25Z" fill="#7E7E7E"/>
</svg>
