<svg width="27" height="27" viewBox="0 0 27 27" fill="none" xmlns="http://www.w3.org/2000/svg">
<path fill-rule="evenodd" clip-rule="evenodd" d="M18.3755 16.5503L21.461 19.4966L20.4293 20.4828L3.90949 4.71028L4.94125 3.72415L7.60824 6.26894C8.89818 5.81369 10.2627 5.58142 11.6379 5.58302C16.3178 5.58302 20.3709 8.23005 22.3448 12.0891C21.4364 13.8717 20.0711 15.4063 18.3755 16.5503ZM10.4933 9.02471L14.8471 13.1821C15.0643 12.602 15.1045 11.9749 14.9631 11.3738C14.8216 10.7727 14.5043 10.2223 14.0481 9.78668C13.5919 9.35105 13.0155 9.04808 12.386 8.91302C11.7565 8.77797 11.0998 8.81638 10.4923 9.02378L10.4933 9.02471ZM15.6686 17.9101C14.3783 18.3651 13.0134 18.5971 11.6379 18.5951C6.95804 18.5951 2.90499 15.9481 0.93103 12.0891C1.83943 10.3064 3.2048 8.77183 4.90037 7.62777L8.42878 10.996C8.21157 11.5762 8.17134 12.2032 8.31278 12.8043C8.45422 13.4054 8.77151 13.9558 9.22773 14.3914C9.68394 14.8271 10.2603 15.13 10.8898 15.2651C11.5193 15.4001 12.176 15.3617 12.7836 15.1543L15.6686 17.9092V17.9101Z" fill="#7E7E7E"/>
</svg>
