<svg width="88" height="88" viewBox="0 0 88 88" fill="none" xmlns="http://www.w3.org/2000/svg">
<path fill-rule="evenodd" clip-rule="evenodd" d="M59.375 31.6666C59.375 35.8659 57.7069 39.8932 54.7375 42.8625C51.7682 45.8318 47.7409 47.5 43.5417 47.5C39.3424 47.5 35.3151 45.8318 32.3458 42.8625C29.3765 39.8932 27.7083 35.8659 27.7083 31.6666C27.7083 27.4674 29.3765 23.4401 32.3458 20.4708C35.3151 17.5015 39.3424 15.8333 43.5417 15.8333C47.7409 15.8333 51.7682 17.5015 54.7375 20.4708C57.7069 23.4401 59.375 27.4674 59.375 31.6666ZM51.4583 31.6666C51.4583 33.7663 50.6243 35.7799 49.1396 37.2646C47.6549 38.7492 45.6413 39.5833 43.5417 39.5833C41.442 39.5833 39.4284 38.7492 37.9438 37.2646C36.4591 35.7799 35.625 33.7663 35.625 31.6666C35.625 29.567 36.4591 27.5534 37.9438 26.0687C39.4284 24.5841 41.442 23.75 43.5417 23.75C45.6413 23.75 47.6549 24.5841 49.1396 26.0687C50.6243 27.5534 51.4583 29.567 51.4583 31.6666Z" fill="#BDAEAE"/>
<path fill-rule="evenodd" clip-rule="evenodd" d="M43.5417 0C19.4948 0 0 19.4948 0 43.5417C0 67.5885 19.4948 87.0833 43.5417 87.0833C67.5885 87.0833 87.0833 67.5885 87.0833 43.5417C87.0833 19.4948 67.5885 0 43.5417 0ZM7.91667 43.5417C7.91667 51.8146 10.739 59.4304 15.4692 65.4788C18.792 61.1172 23.0777 57.5824 27.9919 55.1504C32.9061 52.7183 38.3159 51.4548 43.799 51.4583C49.2115 51.452 54.554 52.6818 59.4191 55.054C64.2841 57.4261 68.5432 60.878 71.8715 65.1463C75.3011 60.648 77.6104 55.3977 78.6081 49.8298C79.6059 44.2619 79.2634 38.5365 77.609 33.1272C75.9547 27.718 73.0361 22.7804 69.0946 18.7231C65.1532 14.6657 60.3022 11.6053 54.9432 9.79493C49.5841 7.98458 43.871 7.47639 38.2765 8.31239C32.6821 9.1484 27.3671 11.3046 22.7714 14.6025C18.1757 17.9004 14.4313 22.2453 11.8482 27.2777C9.26506 32.31 7.91738 37.8851 7.91667 43.5417ZM43.5417 79.1667C35.3634 79.1799 27.4318 76.3664 21.09 71.2025C23.6424 67.5474 27.0401 64.5632 30.994 62.5039C34.948 60.4446 39.3409 59.3712 43.799 59.375C48.2013 59.3712 52.5411 60.4178 56.4576 62.4281C60.3742 64.4384 63.7546 67.3542 66.3179 70.9333C59.9271 76.2652 51.8646 79.1797 43.5417 79.1667Z" fill="#BDAEAE"/>
</svg>
